<svg version="1.1" id="Layer_1" xmlns="http://www.w3.org/2000/svg" xmlns:xlink="http://www.w3.org/1999/xlink" x="0px" y="0px" viewBox="0 0 841.9 319.9" style="enable-background:new 0 0 841.9 319.9;" xml:space="preserve">
    <style type="text/css">
        .st0{fill:#fff;}
        .st1{fill:#fff;}
    </style>
    <g>
        <path class="st0" d="M125.5,22.4H35.3v196.1h43v-64.7h47.1c41.3,0,70.2-27.1,70.2-65.9C195.7,49.3,166.8,22.4,125.5,22.4z
             M151.8,88.3c0,17.1-11.5,28.2-29.4,28.2H78.3V60.6h44.1C140.5,60.6,151.8,71.2,151.8,88.3z"></path>
        <rect x="215.3" y="75.4" class="st0" width="41.1" height="143"></rect>
        <path class="st0" d="M348.7,128.5l-1.7-0.3c-19.2-3.3-24.4-5.2-24.4-12.3c0-6,8.7-10.4,20.2-10.4c13.3,0,22.1,5.4,22.6,13.7l0.3,6
            h42.5v-6.3c0-27-26.6-45.8-64.8-45.8c-38.9,0-65.1,18.3-65.1,45.5c0,37.3,44.3,43.2,63.4,45.7l0.6,0.1c21.7,3.4,25.2,5.9,25.2,12
            c0,6.9-9.3,11.8-22.6,11.8c-14.7,0-24.9-5.9-25.3-14.7l-0.3-6h-43.8l0.1,6.3c0.3,27.7,28.5,47,68.4,47c39.9,0,67.8-18.9,67.8-46.1
            C411.8,138.8,370.7,132.1,348.7,128.5z"></path>
        <rect x="765.5" y="75.4" class="st0" width="41.1" height="143"></rect>
        <polygon class="st1" points="256.4,63.5 215.3,22.4 256.4,22.4 		"></polygon>
        <polygon class="st1" points="765.5,22.4 806.6,63.5 765.5,63.5 		"></polygon>
        <path class="st0" d="M579,75.4v143h-42v-14.7c-9.2,10.6-23,17.1-41.7,17.1c-36.7,0-66.9-32.2-66.9-73.9S458.6,73,495.3,73
            c18.8,0,32.5,6.4,41.7,17.1V75.4H579z M537,146.9c0-21-14-34.2-33.3-34.2s-33.3,13.2-33.3,34.2c0,21,14,34.2,33.3,34.2
            S537,167.9,537,146.9z"></path>
        <path class="st0" d="M687,72c-6,0-11.5,0.7-16.5,2c-10.8,2.8-19.2,7.3-24.5,14.5V76.9v-1.8h-43v0.3v60.4v82.7H644h0.3h1.6v-78.3
            c0-20.4,10.9-29.5,26.7-29.5c13.8,0,24.9,8.3,24.9,26.1v81.7h1.6h41.4v-82.7v-5.4C740.6,91.7,715.9,72,687,72z"></path>
    </g>    
</svg>